<?xml version="1.0" encoding="UTF-8"?>
<svg id="Ebene_1" data-name="Ebene 1" xmlns="http://www.w3.org/2000/svg" viewBox="0 0 1000 1000">
  <defs>
    <style>
      .cls-1 {
        fill: #f6af45;
      }

      .cls-1, .cls-2, .cls-3, .cls-4, .cls-5, .cls-6, .cls-7, .cls-8, .cls-9, .cls-10 {
        stroke-width: 0px;
      }

      .cls-2 {
        fill: #0e4468;
      }

      .cls-3 {
        fill: #ee8002;
      }

      .cls-4 {
        fill: #f3901a;
      }

      .cls-5 {
        fill: #f3a130;
      }

      .cls-11 {
        font-family: Oswald-ExtraLight, Oswald;
        font-size: 124.82px;
        font-weight: 200;
      }

      .cls-11, .cls-10 {
        fill: #f3efd4;
      }

      .cls-6 {
        fill: #f8bf57;
      }

      .cls-7 {
        fill: #c6c3af;
      }

      .cls-8 {
        fill: #af0c0c;
      }

      .cls-9 {
        fill: #123d39;
      }
    </style>
  </defs>
  <circle class="cls-9" cx="500" cy="500" r="500"/>
  <circle class="cls-10" cx="500" cy="500" r="488.13"/>
  <circle class="cls-3" cx="500" cy="500" r="464.7"/>
  <circle class="cls-4" cx="500" cy="500" r="404.52" transform="translate(-207.11 500) rotate(-45)"/>
  <circle class="cls-5" cx="500" cy="500" r="344.34" transform="translate(-207.11 500) rotate(-45)"/>
  <circle class="cls-1" cx="500" cy="500" r="284.17" transform="translate(-207.11 500) rotate(-45)"/>
  <circle class="cls-6" cx="500" cy="500" r="223.99" transform="translate(-207.11 500) rotate(-45)"/>
  <path class="cls-9" d="M681.2,470.36l-23.76,1.63c-49.17,16.11-102.18,28.02-157.44,28.02-32.45,0-64.13-4.11-94.71-10.76l-157.2,10.76-212.79-10.79c-.32,6.36,0,3.65,0,10.79,0,256.64,208.05,464.7,464.7,464.7s464.7-208.05,464.7-464.7c0-22.71-.4-26.03-1.68-41.53l-281.82,11.88Z"/>
  <g>
    <path class="cls-9" d="M176.43,315.79s1.43,25.68-4.28,27.46-8.92,8.2-2.85,7.49,1.43,3.92.36,4.99-15.33,6.06-6.06,6.78c9.27.71-7.13,3.57-7.13,3.57,0,0,9.27,5.71,13.19,4.64s-6.06,7.85-18.9,9.27,12.92,8.2,12.92,8.2l-11.49,3.92s-.22,6.78,9.7,4.99c9.92-1.78,0,5.71,0,5.71,0,0-15.4,2.14-11.12,5.71s-10.7,9.27-1.07,6.78-1.78,9.27-1.78,9.27c0,0-4.28,0,8.56,0s-2.14,7.13-2.14,7.13c0,0-19.61,7.85-10.7,7.49s15.32,3.57,15.32,3.57c0,0-21.74,7.13-12.82,5.35,8.92-1.78-4.28,11.05-8.92,12.12-4.64,1.07,25.68,1.78,25.68,1.78l42.08-5.71s-1.43-13.55-7.85-13.55-21.04-6.78-15.69-6.42,14.26-4.28,8.2-4.28-7.13-7.13-7.13-7.13c0,0,2.14.36,6.78-.36s-3.21-3.92-3.21-3.92l4.28-4.28s-7.13-2.14-9.63-2.14,11.41-6.78,11.41-6.78c0,0-2.14-1.07-7.13-1.78s-8.92-6.06-8.92-6.06c0,0,17.12,1.78,11.05,0s-8.92-4.28-10.34-4.99,5.71-6.06,7.13-5.71,14.26-6.78,5.71-6.78-9.63-1.78-9.63-1.78l8.2-2.14s-13.91-3.21-5.35-4.64-9.27-6.78-9.27-6.78c0,0,1.43-2.5,6.78-2.85s12.84-2.14,10.7-2.14-13.91-4.64-13.91-4.64l2.85-5.35s1.07-3.21-1.78-3.21,1.78-.71,5.71-1.78-6.42-5.35-6.42-5.35c0,0,1.07-24.61-1.07-25.68Z"/>
    <path class="cls-9" d="M271.41,320.06s.92,16.63-2.77,17.79-5.78,5.31-1.85,4.85c3.93-.46.92,2.54.23,3.23s-9.93,3.93-3.93,4.39-4.62,2.31-4.62,2.31c0,0,6.01,3.7,8.55,3s-3.93,5.08-12.24,6.01c-8.32.92,8.37,5.31,8.37,5.31l-7.44,2.54s-.14,4.39,6.28,3.23c6.42-1.16,0,3.7,0,3.7,0,0-9.98,1.39-7.21,3.7s-6.93,6.01-.69,4.39c6.24-1.62-1.16,6.01-1.16,6.01,0,0-2.77,0,5.54,0s-1.39,4.62-1.39,4.62c0,0-12.71,5.08-6.93,4.85,5.78-.23,9.93,2.31,9.93,2.31,0,0-14.08,4.62-8.31,3.47s-2.77,7.16-5.78,7.85,16.63,1.16,16.63,1.16l27.26-3.7s-.92-8.78-5.08-8.78-13.63-4.39-10.16-4.16,9.24-2.77,5.31-2.77-4.62-4.62-4.62-4.62c0,0,1.39.23,4.39-.23s-2.08-2.54-2.08-2.54l2.77-2.77s-4.62-1.39-6.24-1.39,7.39-4.39,7.39-4.39c0,0-1.39-.69-4.62-1.16s-5.78-3.93-5.78-3.93c0,0,11.09,1.16,7.16,0s-5.78-2.77-6.7-3.23,3.7-3.93,4.62-3.7,9.24-4.39,3.7-4.39-6.24-1.16-6.24-1.16l5.31-1.39s-9.01-2.08-3.47-3c5.54-.92-6.01-4.39-6.01-4.39,0,0,.92-1.62,4.39-1.85s8.32-1.39,6.93-1.39-9.01-3-9.01-3l1.85-3.47s.69-2.08-1.16-2.08,1.16-.46,3.7-1.16-4.16-3.47-4.16-3.47c0,0,.69-15.94-.69-16.63Z"/>
    <path class="cls-9" d="M94.51,420.89s.48,8.69-1.45,9.29-3.02,2.78-.97,2.53.48,1.33.12,1.69-5.19,2.05-2.05,2.29-2.41,1.21-2.41,1.21c0,0,3.14,1.93,4.46,1.57s-2.05,2.65-6.39,3.14,4.37,2.78,4.37,2.78l-3.89,1.33s-.07,2.29,3.28,1.69,0,1.93,0,1.93c0,0-5.21.72-3.76,1.93s-3.62,3.14-.36,2.29-.6,3.14-.6,3.14c0,0-1.45,0,2.9,0s-.72,2.41-.72,2.41c0,0-6.64,2.65-3.62,2.53,3.02-.12,5.18,1.21,5.18,1.21,0,0-7.36,2.41-4.34,1.81s-1.45,3.74-3.02,4.1,8.69.6,8.69.6l14.24-1.93s-.48-4.59-2.65-4.59-7.12-2.29-5.31-2.17,4.83-1.45,2.78-1.45-2.41-2.41-2.41-2.41c0,0,.72.12,2.29-.12s-1.09-1.33-1.09-1.33l1.45-1.45s-2.41-.72-3.26-.72,3.86-2.29,3.86-2.29c0,0-.72-.36-2.41-.6s-3.02-2.05-3.02-2.05c0,0,5.79.6,3.74,0s-3.02-1.45-3.5-1.69,1.93-2.05,2.41-1.93,4.83-2.29,1.93-2.29-3.26-.6-3.26-.6l2.78-.72s-4.71-1.09-1.81-1.57-3.14-2.29-3.14-2.29c0,0,.48-.84,2.29-.97,1.81-.12,4.34-.72,3.62-.72s-4.71-1.57-4.71-1.57l.97-1.81s.36-1.09-.6-1.09.6-.24,1.93-.6-2.17-1.81-2.17-1.81c0,0,.36-8.33-.36-8.69Z"/>
    <path class="cls-9" d="M192.86,299.41s-.93,25.68,2.79,27.46,5.81,8.2,1.86,7.49-.93,3.92-.23,4.99,10,6.06,3.95,6.78,4.65,3.57,4.65,3.57c0,0-6.05,5.71-8.61,4.64s3.95,7.85,12.33,9.27c8.37,1.43-8.42,8.2-8.42,8.2l7.49,3.92s.14,6.78-6.32,4.99,0,5.71,0,5.71c0,0,10.05,2.14,7.26,5.71-2.79,3.57,6.98,9.27.7,6.78-6.28-2.5,1.16,9.27,1.16,9.27,0,0,2.79,0-5.58,0s1.4,7.13,1.4,7.13c0,0,12.79,7.85,6.98,7.49s-9.99,3.57-9.99,3.57c0,0,14.18,7.13,8.36,5.35-5.81-1.78,2.79,11.05,5.81,12.12s-16.75,1.78-16.75,1.78l-27.44-5.71s.93-13.55,5.12-13.55c4.19,0,13.72-6.78,10.23-6.42s-9.3-4.28-5.35-4.28,4.65-7.13,4.65-7.13c0,0-1.4.36-4.42-.36s2.09-3.92,2.09-3.92l-2.79-4.28s4.65-2.14,6.28-2.14c1.63,0-7.44-6.78-7.44-6.78,0,0,1.4-1.07,4.65-1.78s5.81-6.06,5.81-6.06c0,0-11.16,1.78-7.21,0s5.81-4.28,6.74-4.99-3.72-6.06-4.65-5.71-9.3-6.78-3.72-6.78c5.58,0,6.28-1.78,6.28-1.78l-5.35-2.14s9.07-3.21,3.49-4.64c-5.58-1.43,6.05-6.78,6.05-6.78,0,0-.93-2.5-4.42-2.85s-8.37-2.14-6.98-2.14,9.07-4.64,9.07-4.64l-1.86-5.35s-.7-3.21,1.16-3.21-1.16-.71-3.72-1.78,4.19-5.35,4.19-5.35c0,0-.7-24.61.7-25.68Z"/>
    <path class="cls-9" d="M223.36,332.8s-.74,13.28,2.21,14.21,4.61,4.24,1.48,3.87-.74,2.03-.18,2.58,7.93,3.14,3.14,3.51,3.69,1.84,3.69,1.84c0,0-4.8,2.95-6.83,2.4s3.14,4.06,9.78,4.8-6.68,4.24-6.68,4.24l5.94,2.03s.11,3.51-5.02,2.58,0,2.95,0,2.95c0,0,7.97,1.11,5.76,2.95s5.53,4.8.55,3.51.92,4.8.92,4.8c0,0,2.21,0-4.43,0-6.64,0,1.11,3.69,1.11,3.69,0,0,10.15,4.06,5.53,3.87s-7.93,1.84-7.93,1.84c0,0,11.25,3.69,6.64,2.77s2.21,5.72,4.61,6.27-13.28.92-13.28.92l-21.77-2.95s.74-7.01,4.06-7.01,10.89-3.51,8.12-3.32-7.38-2.21-4.24-2.21,3.69-3.69,3.69-3.69c0,0-1.11.18-3.51-.18s1.66-2.03,1.66-2.03l-2.21-2.21s3.69-1.11,4.98-1.11-5.9-3.51-5.9-3.51c0,0,1.11-.55,3.69-.92s4.61-3.14,4.61-3.14c0,0-8.86.92-5.72,0s4.61-2.21,5.35-2.58-2.95-3.14-3.69-2.95-7.38-3.51-2.95-3.51,4.98-.92,4.98-.92l-4.24-1.11s7.2-1.66,2.77-2.4c-4.43-.74,4.8-3.51,4.8-3.51,0,0-.74-1.29-3.51-1.48s-6.64-1.11-5.53-1.11,7.2-2.4,7.2-2.4l-1.48-2.77s-.55-1.66.92-1.66-.92-.37-2.95-.92,3.32-2.77,3.32-2.77c0,0-.55-12.73.55-13.28Z"/>
    <path class="cls-9" d="M138.77,367.42c-3.59-.12,4.66,5.1-10.11,12.63-3.75,1.91,8.63.2,7.03,4.13-.58,1.41-17.14,3.57-9.86,3.57s8.32,3.57,1.64,4.99c-6.68,1.43,5.65,3.57,7.71,3.57s-6.19,3.92-11.32,4.64-1.01,5.35,5.15,5.35,5.65,4.64-5.14,5.71c-10.79,1.07,3.83,3.57,6.28,3.57s-7.96,4.99-10.21,4.99,7.19,4.28,9.41,4.28-2.2,7.85-9.75,8.2,3.24,3.92,3.24,3.92c0,0-3.6,4.28-9.25,5.71-5.65,1.43,6.17,4.28,6.17,4.28,0,0-3.58,3.21-7.7,4.28s13.35,6.06,13.35,6.06c0,0-9.46,2.14-13.98,3.57s46.34,7.85,35.55,3.57c-10.79-4.28-7.19-8.2-1.54-7.85,5.65.36-9.25-4.28-9.25-4.28,0,0,8.66-1.07,12.3-1.07s-5.1-5.71-10.24-5.71,2.06-6.06,7.71-5.35-.51-6.06-7.71-6.06,0-6.42,5.14-6.78c5.14-.36,7.19-6.06,0-6.06s-5.65-3.21,0-2.85c5.65.36.51-3.21-3.6-3.57s12.84-3.21,4.11-3.21-12.33-3.92-5.65-4.64c6.68-.71,17.58-4.28,11.1-4.28s-18.29-2.5-11.61-2.5,6.17-7.13,3.6-7.13-8.22-4.99-4.62-4.99,14.39-2.5,8.22-2.5-6.68-7.78-5.14-6.78c.95.62.01-11.38-1.03-11.41Z"/>
    <path class="cls-9" d="M107.68,394.28c2.41-.08-3.13,3.43,6.79,8.49,2.52,1.29-5.8.14-4.72,2.77.39.95,11.52,2.4,6.63,2.4-4.9,0-5.59,2.4-1.1,3.36,4.49.96-3.8,2.4-5.18,2.4s4.16,2.64,7.61,3.12.68,3.6-3.46,3.6-3.8,3.12,3.45,3.84c7.25.72-2.58,2.4-4.22,2.4s5.35,3.36,6.86,3.36-4.83,2.88-6.33,2.88,1.48,5.27,6.56,5.51-2.18,2.64-2.18,2.64c0,0,2.42,2.88,6.22,3.84,3.8.96-4.14,2.88-4.14,2.88,0,0,2.4,2.16,5.17,2.88s-8.98,4.07-8.98,4.07c0,0,6.36,1.44,9.4,2.4s-31.15,5.27-23.9,2.4,4.83-5.51,1.04-5.27,6.22-2.88,6.22-2.88c0,0-5.82-.72-8.26-.72s3.43-3.84,6.88-3.84c3.45,0-1.38-4.07-5.18-3.6s.35-4.07,5.18-4.07c4.83,0,0-4.31-3.45-4.55-3.45-.24-4.83-4.07,0-4.07,4.83,0,3.8-2.16,0-1.92s-.35-2.16,2.42-2.4c2.76-.24-8.63-2.16-2.76-2.16s8.29-2.64,3.8-3.12c-4.49-.48-11.81-2.88-7.46-2.88,4.35,0,12.3-1.68,7.81-1.68-4.49,0-4.14-4.79-2.42-4.79s5.53-3.36,3.11-3.36-9.67-1.68-5.53-1.68,4.49-5.23,3.45-4.55c-.64.41,0-7.65.69-7.67Z"/>
    <path class="cls-9" d="M73.3,448.61c1.43-.05-1.86,2.04,4.04,5.04,1.5.76-3.45.08-2.8,1.65.23.56,6.85,1.42,3.94,1.42-2.91,0-3.32,1.42-.65,1.99s-2.26,1.42-3.08,1.42,2.47,1.57,4.52,1.85.4,2.14-2.06,2.14-2.26,1.85,2.05,2.28-1.53,1.42-2.51,1.42,3.18,1.99,4.08,1.99-2.87,1.71-3.76,1.71.88,3.13,3.89,3.27c3.02.14-1.29,1.57-1.29,1.57,0,0,1.44,1.71,3.69,2.28s-2.46,1.71-2.46,1.71c0,0,1.43,1.28,3.07,1.71s-5.33,2.42-5.33,2.42c0,0,3.78.85,5.58,1.42s-18.5,3.13-14.2,1.42,2.87-3.27.62-3.13,3.69-1.71,3.69-1.71c0,0-3.46-.43-4.91-.43s2.04-2.28,4.09-2.28-.82-2.42-3.08-2.14.21-2.42,3.08-2.42c2.87,0,0-2.56-2.05-2.71s-2.87-2.42,0-2.42,2.26-1.28,0-1.14-.21-1.28,1.44-1.42-5.13-1.28-1.64-1.28,4.92-1.57,2.26-1.85-7.02-1.71-4.43-1.71,7.3-1,4.64-1-2.46-2.85-1.44-2.85,3.28-1.99,1.85-1.99-5.74-1-3.28-1,2.67-3.11,2.05-2.71c-.38.25,0-4.54.41-4.56Z"/>
    <path class="cls-9" d="M776.65,298.46s.66,11.87-1.98,12.7-4.12,3.79-1.32,3.46.66,1.81.16,2.31-7.09,2.8-2.8,3.13-3.3,1.65-3.3,1.65c0,0,4.29,2.64,6.1,2.14s-2.8,3.63-8.74,4.29c-5.94.66,5.97,3.79,5.97,3.79l-5.31,1.81s-.1,3.13,4.48,2.31c4.59-.82,0,2.64,0,2.64,0,0-7.12.99-5.14,2.64s-4.95,4.29-.49,3.13-.82,4.29-.82,4.29c0,0-1.98,0,3.96,0s-.99,3.3-.99,3.3c0,0-9.07,3.63-4.95,3.46s7.09,1.65,7.09,1.65c0,0-10.05,3.3-5.93,2.47s-1.98,5.11-4.12,5.61,11.87.82,11.87.82l19.46-2.64s-.66-6.27-3.63-6.27-9.73-3.13-7.26-2.97,6.6-1.98,3.79-1.98-3.3-3.3-3.3-3.3c0,0,.99.16,3.13-.16s-1.48-1.81-1.48-1.81l1.98-1.98s-3.3-.99-4.45-.99,5.28-3.13,5.28-3.13c0,0-.99-.49-3.3-.82s-4.12-2.8-4.12-2.8c0,0,7.92.82,5.11,0s-4.12-1.98-4.78-2.31,2.64-2.8,3.3-2.64,6.6-3.13,2.64-3.13-4.45-.82-4.45-.82l3.79-.99s-6.43-1.48-2.47-2.14-4.29-3.13-4.29-3.13c0,0,.66-1.15,3.13-1.32,2.47-.16,5.94-.99,4.95-.99s-6.43-2.14-6.43-2.14l1.32-2.47s.49-1.48-.82-1.48.82-.33,2.64-.82-2.97-2.47-2.97-2.47c0,0,.49-11.38-.49-11.87Z"/>
    <path class="cls-9" d="M814.58,338.54s.71,12.84-2.14,13.73-4.46,4.1-1.43,3.74c3.03-.36.71,1.96.18,2.5s-7.67,3.03-3.03,3.39-3.57,1.78-3.57,1.78c0,0,4.64,2.85,6.6,2.32s-3.03,3.92-9.45,4.64,6.46,4.1,6.46,4.1l-5.75,1.96s-.11,3.39,4.85,2.5,0,2.85,0,2.85c0,0-7.7,1.07-5.56,2.85s-5.35,4.64-.53,3.39-.89,4.64-.89,4.64c0,0-2.14,0,4.28,0s-1.07,3.57-1.07,3.57c0,0-9.81,3.92-5.35,3.74,4.46-.18,7.66,1.78,7.66,1.78,0,0-10.87,3.57-6.41,2.67s-2.14,5.53-4.46,6.06c-2.32.53,12.84.89,12.84.89l21.04-2.85s-.71-6.78-3.92-6.78-10.52-3.39-7.85-3.21,7.13-2.14,4.1-2.14-3.57-3.57-3.57-3.57c0,0,1.07.18,3.39-.18s-1.6-1.96-1.6-1.96l2.14-2.14s-3.57-1.07-4.81-1.07,5.71-3.39,5.71-3.39c0,0-1.07-.53-3.57-.89s-4.46-3.03-4.46-3.03c0,0,8.56.89,5.53,0s-4.46-2.14-5.17-2.5,2.85-3.03,3.57-2.85,7.13-3.39,2.85-3.39-4.81-.89-4.81-.89l4.1-1.07s-6.95-1.6-2.67-2.32c4.28-.71-4.64-3.39-4.64-3.39,0,0,.71-1.25,3.39-1.43s6.42-1.07,5.35-1.07-6.95-2.32-6.95-2.32l1.43-2.67s.53-1.6-.89-1.6.89-.36,2.85-.89-3.21-2.67-3.21-2.67c0,0,.53-12.3-.53-12.84Z"/>
    <path class="cls-9" d="M791.83,315.21s-.74,13.28,2.21,14.21c2.95.92,4.61,4.24,1.48,3.87s-.74,2.03-.18,2.58,7.93,3.14,3.14,3.51c-4.8.37,3.69,1.84,3.69,1.84,0,0-4.8,2.95-6.83,2.4s3.14,4.06,9.78,4.8-6.68,4.24-6.68,4.24l5.94,2.03s.11,3.51-5.02,2.58,0,2.95,0,2.95c0,0,7.97,1.11,5.76,2.95s5.53,4.8.55,3.51c-4.98-1.29.92,4.8.92,4.8,0,0,2.21,0-4.43,0s1.11,3.69,1.11,3.69c0,0,10.15,4.06,5.53,3.87-4.61-.18-7.93,1.84-7.93,1.84,0,0,11.25,3.69,6.64,2.77-4.61-.92,2.21,5.72,4.61,6.27s-13.28.92-13.28.92l-21.77-2.95s.74-7.01,4.06-7.01,10.89-3.51,8.12-3.32-7.38-2.21-4.24-2.21,3.69-3.69,3.69-3.69c0,0-1.11.18-3.51-.18s1.66-2.03,1.66-2.03l-2.21-2.21s3.69-1.11,4.98-1.11-5.9-3.51-5.9-3.51c0,0,1.11-.55,3.69-.92s4.61-3.14,4.61-3.14c0,0-8.86.92-5.72,0s4.61-2.21,5.35-2.58-2.95-3.14-3.69-2.95-7.38-3.51-2.95-3.51c4.43,0,4.98-.92,4.98-.92l-4.24-1.11s7.2-1.66,2.77-2.4,4.8-3.51,4.8-3.51c0,0-.74-1.29-3.51-1.48s-6.64-1.11-5.53-1.11,7.2-2.4,7.2-2.4l-1.48-2.77s-.55-1.66.92-1.66-.92-.37-2.95-.92c-2.03-.55,3.32-2.77,3.32-2.77,0,0-.55-12.73.55-13.28Z"/>
    <path class="cls-9" d="M751.09,299.06c2.06-.07-2.67,2.93,5.8,7.25,2.15,1.1-4.95.12-4.03,2.37.33.81,9.84,2.05,5.65,2.05-4.18,0-4.77,2.05-.94,2.86s-3.24,2.05-4.42,2.05,3.55,2.25,6.49,2.66.58,3.07-2.96,3.07-3.24,2.66,2.95,3.27-2.2,2.05-3.6,2.05,4.57,2.86,5.86,2.86-4.13,2.45-5.4,2.45,1.26,4.5,5.59,4.71-1.86,2.25-1.86,2.25c0,0,2.06,2.45,5.31,3.27s-3.54,2.45-3.54,2.45c0,0,2.05,1.84,4.41,2.45s-7.66,3.48-7.66,3.48c0,0,5.43,1.23,8.02,2.05s-26.59,4.5-20.4,2.05c6.19-2.45,4.13-4.71.88-4.5s5.31-2.45,5.31-2.45c0,0-4.97-.61-7.05-.61s2.93-3.27,5.87-3.27-1.18-3.48-4.42-3.07.29-3.48,4.42-3.48,0-3.68-2.95-3.89-4.13-3.48,0-3.48,3.24-1.84,0-1.64-.29-1.84,2.06-2.05-7.37-1.84-2.36-1.84,7.07-2.25,3.24-2.66-10.08-2.45-6.37-2.45c3.71,0,10.49-1.43,6.66-1.43-3.83,0-3.54-4.09-2.06-4.09s4.72-2.86,2.65-2.86-8.25-1.43-4.72-1.43,3.83-4.46,2.95-3.89c-.54.35,0-6.53.59-6.55Z"/>
    <path class="cls-9" d="M863.97,394.27s.51,9.27-1.54,9.91-3.22,2.96-1.03,2.7.51,1.42.13,1.8-5.54,2.19-2.19,2.45c3.35.26-2.57,1.29-2.57,1.29,0,0,3.35,2.06,4.76,1.67s-2.19,2.83-6.82,3.35c-4.63.51,4.66,2.96,4.66,2.96l-4.15,1.42s-.08,2.45,3.5,1.8,0,2.06,0,2.06c0,0-5.56.77-4.02,2.06,1.54,1.29-3.86,3.35-.39,2.45s-.64,3.35-.64,3.35c0,0-1.54,0,3.09,0s-.77,2.57-.77,2.57c0,0-7.08,2.83-3.86,2.7s5.53,1.29,5.53,1.29c0,0-7.85,2.57-4.63,1.93s-1.54,3.99-3.22,4.38,9.27.64,9.27.64l15.19-2.06s-.51-4.89-2.83-4.89-7.6-2.45-5.66-2.32,5.15-1.54,2.96-1.54-2.57-2.57-2.57-2.57c0,0,.77.13,2.45-.13s-1.16-1.42-1.16-1.42l1.54-1.54s-2.57-.77-3.48-.77,4.12-2.45,4.12-2.45c0,0-.77-.39-2.57-.64s-3.22-2.19-3.22-2.19c0,0,6.18.64,3.99,0s-3.22-1.54-3.73-1.8,2.06-2.19,2.57-2.06,5.15-2.45,2.06-2.45-3.48-.64-3.48-.64l2.96-.77s-5.02-1.16-1.93-1.67-3.35-2.45-3.35-2.45c0,0,.51-.9,2.45-1.03s4.63-.77,3.86-.77-5.02-1.67-5.02-1.67l1.03-1.93s.39-1.16-.64-1.16.64-.26,2.06-.64-2.32-1.93-2.32-1.93c0,0,.39-8.88-.39-9.27Z"/>
    <path class="cls-9" d="M846.7,349.22c-3.13.14,4.4,4.11-7.91,11.68-3.13,1.92,7.51-.42,6.39,3.1-.41,1.27-14.65,4.28-8.32,3.78,6.33-.5,7.47,2.53,1.77,4.23-5.71,1.7,5.16,2.71,6.94,2.57,1.79-.14-5.11,3.84-9.52,4.81-4.4.97-.51,4.72,4.85,4.29,5.36-.43,5.23,3.64-4.07,5.31s3.58,2.83,5.71,2.67-6.58,4.89-8.53,5.04,6.55,3.22,8.47,3.07-1.37,6.97-7.91,7.8c-6.54.83,3.08,3.19,3.08,3.19,0,0-2.83,3.97-7.64,5.6-4.81,1.63,5.65,3.29,5.65,3.29,0,0-2.89,3.04-6.39,4.25-3.51,1.21,12.02,4.35,12.02,4.35,0,0-8.08,2.51-11.9,4.06-3.83,1.55,40.82,3.62,31.14.65-9.67-2.97-6.82-6.63-1.88-6.71,4.94-.08-8.33-3.08-8.33-3.08,0,0,7.46-1.53,10.61-1.78s-4.83-4.61-9.29-4.25c-4.46.35,1.37-5.41,6.33-5.18s-.86-5.23-7.12-4.74c-6.25.5-.44-5.58,4-6.24s5.83-5.76-.42-5.27c-6.25.5-5.13-2.4-.2-2.48,4.94-.08.23-2.82-3.37-2.85-3.6-.03,10.94-3.68,3.35-3.07-7.59.6-10.99-2.56-5.23-3.64,5.76-1.08,14.98-4.93,9.35-4.48-5.63.45-16.07-.91-10.26-1.37,5.8-.46,4.87-6.62,2.63-6.45s-7.49-3.77-4.36-4.02,12.33-3.16,6.97-2.74c-5.36.43-6.34-6.3-4.93-5.53.87.47-.78-9.89-1.68-9.85Z"/>
    <path class="cls-9" d="M826.75,363.04c2.41-.08-3.13,3.43,6.79,8.49,2.52,1.29-5.8.14-4.72,2.77.39.95,11.52,2.4,6.63,2.4s-5.59,2.4-1.1,3.36-3.8,2.4-5.18,2.4,4.16,2.64,7.61,3.12.68,3.6-3.46,3.6-3.8,3.12,3.45,3.84c7.25.72-2.58,2.4-4.22,2.4s5.35,3.36,6.86,3.36-4.83,2.88-6.33,2.88,1.48,5.27,6.56,5.51-2.18,2.64-2.18,2.64c0,0,2.42,2.88,6.22,3.84s-4.14,2.88-4.14,2.88c0,0,2.4,2.16,5.17,2.88s-8.98,4.07-8.98,4.07c0,0,6.36,1.44,9.4,2.4s-31.15,5.27-23.9,2.4c7.25-2.88,4.83-5.51,1.04-5.27s6.22-2.88,6.22-2.88c0,0-5.82-.72-8.26-.72-2.44,0,3.43-3.84,6.88-3.84s-1.38-4.07-5.18-3.6.35-4.07,5.18-4.07c4.83,0,0-4.31-3.45-4.55-3.45-.24-4.83-4.07,0-4.07s3.8-2.16,0-1.92c-3.8.24-.35-2.16,2.42-2.4s-8.63-2.16-2.76-2.16c5.87,0,8.29-2.64,3.8-3.12s-11.81-2.88-7.46-2.88c4.35,0,12.3-1.68,7.81-1.68s-4.14-4.79-2.42-4.79,5.53-3.36,3.11-3.36c-2.42,0-9.67-1.68-5.53-1.68s4.49-5.23,3.45-4.55c-.64.41,0-7.65.69-7.67Z"/>
    <path class="cls-9" d="M736.24,301.85c2.49-.12-3.24,5.1,7.02,12.63,2.6,1.91-5.99.2-4.88,4.13.4,1.41,11.9,3.57,6.84,3.57s-5.77,3.57-1.14,4.99-3.92,3.57-5.35,3.57,4.3,3.92,7.85,4.64c3.56.71.7,5.35-3.58,5.35-4.28,0-3.92,4.64,3.57,5.71,7.49,1.07-2.66,3.57-4.36,3.57s5.53,4.99,7.08,4.99-4.99,4.28-6.53,4.28,1.53,7.85,6.77,8.2c5.24.36-2.25,3.92-2.25,3.92,0,0,2.5,4.28,6.42,5.71s-4.28,4.28-4.28,4.28c0,0,2.48,3.21,5.34,4.28s-9.27,6.06-9.27,6.06c0,0,6.57,2.14,9.7,3.57s-32.17,7.85-24.68,3.57,4.99-8.2,1.07-7.85c-3.92.36,6.42-4.28,6.42-4.28,0,0-6.01-1.07-8.53-1.07s3.54-5.71,7.11-5.71-1.43-6.06-5.35-5.35.36-6.06,5.35-6.06,0-6.42-3.57-6.78-4.99-6.06,0-6.06,3.92-3.21,0-2.85-.36-3.21,2.5-3.57-8.92-3.21-2.85-3.21c6.06,0,8.56-3.92,3.92-4.64s-12.2-4.28-7.7-4.28c4.49,0,12.7-2.5,8.06-2.5-4.64,0-4.28-7.13-2.5-7.13s5.71-4.99,3.21-4.99-9.98-2.5-5.71-2.5,4.64-7.78,3.57-6.78c-.66.62,0-11.38.71-11.41Z"/>
    <path class="cls-9" d="M893.34,397.77s.66,11.87-1.98,12.7-4.12,3.79-1.32,3.46.66,1.81.16,2.31-7.09,2.8-2.8,3.13-3.3,1.65-3.3,1.65c0,0,4.29,2.64,6.1,2.14s-2.8,3.63-8.74,4.29c-5.94.66,5.97,3.79,5.97,3.79l-5.31,1.81s-.1,3.13,4.48,2.31c4.59-.82,0,2.64,0,2.64,0,0-7.12.99-5.14,2.64s-4.95,4.29-.49,3.13-.82,4.29-.82,4.29c0,0-1.98,0,3.96,0s-.99,3.3-.99,3.3c0,0-9.07,3.63-4.95,3.46,4.12-.16,7.09,1.65,7.09,1.65,0,0-10.05,3.3-5.93,2.47,4.12-.82-1.98,5.11-4.12,5.61s11.87.82,11.87.82l19.46-2.64s-.66-6.27-3.63-6.27-9.73-3.13-7.26-2.97c2.47.16,6.6-1.98,3.79-1.98s-3.3-3.3-3.3-3.3c0,0,.99.16,3.13-.16s-1.48-1.81-1.48-1.81l1.98-1.98s-3.3-.99-4.45-.99,5.28-3.13,5.28-3.13c0,0-.99-.49-3.3-.82s-4.12-2.8-4.12-2.8c0,0,7.92.82,5.11,0s-4.12-1.98-4.78-2.31,2.64-2.8,3.3-2.64,6.6-3.13,2.64-3.13-4.45-.82-4.45-.82l3.79-.99s-6.43-1.48-2.47-2.14c3.96-.66-4.29-3.13-4.29-3.13,0,0,.66-1.15,3.13-1.32s5.94-.99,4.95-.99-6.43-2.14-6.43-2.14l1.32-2.47s.49-1.48-.82-1.48.82-.33,2.64-.82-2.97-2.47-2.97-2.47c0,0,.49-11.38-.49-11.87Z"/>
    <path class="cls-9" d="M909.41,424.42c1.78-.06-2.31,2.53,5.02,6.27,1.86.95-4.28.1-3.49,2.05.29.7,8.51,1.77,4.89,1.77s-4.13,1.77-.81,2.48c3.31.71-2.8,1.77-3.82,1.77s3.07,1.95,5.62,2.3.5,2.65-2.56,2.65-2.8,2.3,2.55,2.83c5.35.53-1.9,1.77-3.12,1.77s3.95,2.48,5.06,2.48-3.57,2.12-4.67,2.12,1.09,3.89,4.84,4.07c3.75.18-1.61,1.95-1.61,1.95,0,0,1.78,2.12,4.59,2.83s-3.06,2.12-3.06,2.12c0,0,1.77,1.59,3.82,2.12s-6.63,3.01-6.63,3.01c0,0,4.7,1.06,6.94,1.77s-23,3.89-17.64,1.77c5.35-2.12,3.57-4.07.76-3.89-2.8.18,4.59-2.12,4.59-2.12,0,0-4.3-.53-6.1-.53s2.53-2.83,5.08-2.83-1.02-3.01-3.82-2.65.25-3.01,3.82-3.01,0-3.19-2.55-3.36-3.57-3.01,0-3.01,2.8-1.59,0-1.42c-2.8.18-.25-1.59,1.78-1.77s-6.37-1.59-2.04-1.59c4.33,0,6.12-1.95,2.8-2.3s-8.72-2.12-5.51-2.12,9.08-1.24,5.76-1.24-3.06-3.54-1.78-3.54,4.08-2.48,2.29-2.48c-1.78,0-7.14-1.24-4.08-1.24s3.32-3.86,2.55-3.36c-.47.31,0-5.65.51-5.66Z"/>
    <path class="cls-9" d="M876.58,378.52c1.84-.09-2.39,3.77,5.19,9.34,1.92,1.41-4.43.15-3.61,3.05.3,1.05,8.8,2.64,5.06,2.64s-4.27,2.64-.84,3.69-2.9,2.64-3.96,2.64,3.18,2.9,5.81,3.43c2.63.53.52,3.96-2.65,3.96s-2.9,3.43,2.64,4.22c5.54.79-1.97,2.64-3.23,2.64s4.09,3.69,5.24,3.69-3.69,3.17-4.83,3.17,1.13,5.8,5.01,6.07-1.66,2.9-1.66,2.9c0,0,1.85,3.17,4.75,4.22s-3.17,3.17-3.17,3.17c0,0,1.84,2.37,3.95,3.17s-6.86,4.48-6.86,4.48c0,0,4.86,1.58,7.18,2.64s-23.79,5.8-18.25,2.64c5.54-3.17,3.69-6.07.79-5.8-2.9.26,4.75-3.17,4.75-3.17,0,0-4.45-.79-6.31-.79s2.62-4.22,5.26-4.22-1.06-4.48-3.96-3.96.26-4.48,3.96-4.48,0-4.75-2.64-5.01c-2.64-.26-3.69-4.48,0-4.48,3.69,0,2.9-2.37,0-2.11s-.26-2.37,1.85-2.64-6.59-2.37-2.11-2.37,6.33-2.9,2.9-3.43-9.02-3.17-5.7-3.17,9.39-1.85,5.96-1.85c-3.43,0-3.17-5.28-1.85-5.28s4.22-3.69,2.37-3.69-7.39-1.85-4.22-1.85,3.43-5.76,2.64-5.01c-.49.46,0-8.42.53-8.44Z"/>
    <path class="cls-9" d="M248.62,322.44c2.49-.12-3.24,5.1,7.02,12.63,2.6,1.91-5.99.2-4.88,4.13.4,1.41,11.9,3.57,6.84,3.57s-5.77,3.57-1.14,4.99-3.92,3.57-5.35,3.57,4.3,3.92,7.85,4.64c3.56.71.7,5.35-3.58,5.35s-3.92,4.64,3.57,5.71c7.49,1.07-2.66,3.57-4.36,3.57s5.53,4.99,7.08,4.99-4.99,4.28-6.53,4.28,1.53,7.85,6.77,8.2-2.25,3.92-2.25,3.92c0,0,2.5,4.28,6.42,5.71,3.92,1.43-4.28,4.28-4.28,4.28,0,0,2.48,3.21,5.34,4.28s-9.27,6.06-9.27,6.06c0,0,6.57,2.14,9.7,3.57s-32.17,7.85-24.68,3.57c7.49-4.28,4.99-8.2,1.07-7.85-3.92.36,6.42-4.28,6.42-4.28,0,0-6.01-1.07-8.53-1.07s3.54-5.71,7.11-5.71-1.43-6.06-5.35-5.35c-3.92.71.36-6.06,5.35-6.06,4.99,0,0-6.42-3.57-6.78s-4.99-6.06,0-6.06,3.92-3.21,0-2.85-.36-3.21,2.5-3.57-8.92-3.21-2.85-3.21,8.56-3.92,3.92-4.64-12.2-4.28-7.7-4.28,12.7-2.5,8.06-2.5-4.28-7.13-2.5-7.13,5.71-4.99,3.21-4.99-9.98-2.5-5.71-2.5,4.64-7.78,3.57-6.78c-.66.62,0-11.38.71-11.41Z"/>
  </g>
  <path class="cls-9" d="M52.51,513.46l-17.21-24.25s30.76-13.55,42.2-22.02c11.75-8.7,36.55-30.31,46.89-35.84,10.34-5.53,31.56-29.42,62.05-37.09,30.49-7.67,60.09-45.29,64.37-48.14,4.28-2.85,15.16-3.03,19.97-2.85,4.81.18,3.89-11.72,28.55-7.94,5.12.78,17,13.94,27.08,30.76,10.08,16.82,8.07-6.73,8.07-6.73,0,0,8,4.15,47.7-8.3,48-15.05,44.43-66.63,44.43-66.63,0,0,20.06-26.66,30.49-31.74,10.43-5.08,26.87-10.52,38.6-26.39,9.09-12.3,29.06-34.5,32-34.5,9.63.01,18.1,0,18.1,0,0,0,3.66,1.69,12.66,10.7,7.42,7.42,11.95,9.98,16.58,10.16,4.64.18,10.34,6.95,13.19,12.12,2.85,5.17,9.42,17.47,11.14,22.11s-11.55,30.32,1.46,36.91c13.02,6.6,52.91,15.51,57.19,21.04,4.28,5.53,1.8,19.17,1.8,19.17,0,0,8.88,1.38,19.52-13.06,15.38-20.86,13.46-18.4,24.16-18.14,9.27.22,9.27-2.72,26.66,16.67,14.85,16.56,25.5,17.59,33.3,21.53,8.56,4.32,17.07,8.69,19.75,15.82,2.67,7.13,4.81,11.97,11.41,19.53,11.22,12.84,22.47,21.61,22.47,21.61,10.95,8.75,20.44,16.34,35.14,25.41,10.64,6.56,27.58,16.11,50.06,24.92,44.64,17.49,59.51,14.89,60.73,20.17,1.07,4.64-238.64,55.79-238.64,55.79h-289.56l-186.73-14.26-195.58,13.46Z"/>
  <path class="cls-10" d="M26.92,497.15s9.49-3.83,16.27-8.47c6.78-4.64,42.51-17.03,45.9-20.77s15.16-18.54,27.99-26.03,38.33-33.43,67.75-41.99c29.42-8.56,51.08-31.56,56.97-39.32s17.38-11.77,18.45-12.04,14.44-.8,17.65-4.55c3.21-3.74,4.55-6.11,8.83-6.42,21.6-1.57,35.08,7.71,42.57,17.88,7.49,10.16,20.59,24.87,20.59,24.87,0,0-19.7-18.45-29.87-21.39s-23.4-7.18-23.4-7.18c0,0-3.05-.88-3.74.8-1.23,2.99-13.91,39.05-20.86,44.93s-15.15,34.85-15.15,34.85c0,0-8.79.85-14.3-3.16-7.2-5.24-28.32-12.7-39.02-4.68s-52.96,31.47-70.96,38.96c-18.01,7.49-39.32,21.1-47.61,25.68-70.68,39-64.84,21.66-58.07,8.02Z"/>
  <path class="cls-10" d="M974.15,465.39s16.05,21.14-76.85-.78c-10.59-2.5-49.18-17.65-75.79-20.33-26.61-2.67-41.99,4.81-34.37-8.29,7.62-13.11,4.95-8.29-2.94-15.65s-16.05-6.95-25.94-23.4c-9.9-16.45,11.5,2.81,11.5,2.81l-58.84-75.29s-1.31,1.36-4.28.8c-36.97-6.93-68.27,85.68-84.25,110.19-6.65,10.21,8.09-4.97-17.98,19.32-7.45,6.95.59-2.37-15.41,11.56-6.14,2.29-5.63,4.3-17.48,6.52-76.67,11.05,57.48-41.48,69.26-95.7,9.76-44.9,43.66-55.09,51.15-72.21,7.49-17.12,31.83,5.08,31.83,5.08,0,0,16.05,14.98,25.14,19.52,9.09,4.55,16.58,5.35,22.73,12.3,14.25,16.11,20.69,28.63,32.36,42.79,13.12,15.92,65.01,47.74,109.76,61.65,0,0,20.41,7.12,60.4,19.1Z"/>
  <text class="cls-11" transform="translate(305.05 873.85) rotate(-8) scale(.93) skewX(-20.16)"><tspan x="0" y="0" xml:space="preserve">SOLA  2024</tspan></text>
  <polygon class="cls-10" points="543.45 913.93 529.17 925.04 531.8 907.14 516.83 896.99 534.66 893.96 539.69 876.58 548.08 892.61 566.16 892.02 553.51 904.95 559.66 921.96 543.45 913.93"/>
  <polygon class="cls-10" points="597.87 901.78 589.07 908.62 590.7 897.59 581.47 891.34 592.46 889.48 595.55 878.77 600.72 888.64 611.86 888.28 604.07 896.24 607.86 906.73 597.87 901.78"/>
  <polygon class="cls-10" points="644.73 888.74 638.54 893.56 639.68 885.8 633.19 881.39 640.92 880.08 643.1 872.54 646.74 879.49 654.58 879.24 649.1 884.85 651.76 892.23 644.73 888.74"/>
  <polygon class="cls-10" points="687.08 875.48 682.76 878.84 683.56 873.43 679.03 870.37 684.42 869.45 685.94 864.2 688.47 869.04 693.94 868.86 690.12 872.77 691.97 877.91 687.08 875.48"/>
  <polygon class="cls-10" points="726.58 861.44 723.03 864.2 723.69 859.76 719.97 857.24 724.39 856.49 725.64 852.18 727.72 856.15 732.21 856.01 729.07 859.22 730.6 863.44 726.58 861.44"/>
  <polygon class="cls-10" points="481.69 917.1 472.9 923.94 474.52 912.91 465.29 906.66 476.28 904.8 479.37 894.09 484.54 903.96 495.68 903.6 487.89 911.57 491.68 922.05 481.69 917.1"/>
  <polygon class="cls-10" points="429.84 913.84 423.5 918.77 424.67 910.82 418.01 906.31 425.94 904.97 428.17 897.24 431.9 904.36 439.93 904.1 434.31 909.85 437.04 917.41 429.84 913.84"/>
  <path class="cls-9" d="M264.28,204.26s-12.7,16.28-17.31,16.09c-4.61-.19-5.3.19-5.53,3.97-.23,3.78-10.06,10.24-16.26,11.8-6.2,1.57-1.69,6.36,7.48,5.75,3.73-.25,16.19-9.44,18.45-6.21,2.25,3.24,6.62,15.16,10.82,6.99,4.2-8.16,8.58-4.2-1.25-8.31-9.83-4.11-4.58-6.99-2.27-9.04.67-.6,5-4.89,8.4-11.51,1.45-2.81,1.84-13.85-2.52-9.54Z"/>
  <path class="cls-9" d="M280.28,228.8s7-1.62,7.49-3.1.69-1.65,1.91-1.27,4.1-2.38,5.33-4.14,2.21.23.92,3.05c-.53,1.15-4.92,3.98-4.17,5.08s2.91,1.36,1.73,2.42c-.97.88-1.61,2.35-2.31.58-1.32-3.35-2.64-2.43-3.56-1.95-.27.14-2.14.99-4.64,1.27-1.06.12-4.59-1.08-2.71-1.94Z"/>
  <g>
    <path class="cls-10" d="M290.28,556.8c16.96,10.7,53.03,17.12,50.17-3.28-1.55-11.04-19.4-26.31-33.63-24.31-3.49.49-6.85.93-9.94,1.52,6.45-42.88-11.49-79.13-71.71-70.67-23.24,3.27-45.72,16.2-65.46,33.79-3.07,1.32-4.9,3.06-5.53,4.92-38.05,37.05-63.6,91.3-58.5,127.61,2.78,19.75,14.16,14.3,11.71-3.13-2.9-20.63,18.9-65.76,47.85-100.04,1.11,22.66,2.84,64.48,7.93,107.01-8.63-.27-11.7-1.02-11,3.92.81,5.81,5.79,9.56,13.25,12.06,8.99,61.84,26.32,119.83,61.06,114.06,19.67-3.36-.88-14.69-8.32-61.34-2.71-15.03-4.45-33.74-6.06-53.66,34.19-10.86,64.45-49.3,78.19-88.48ZM210.48,619.14c-2.96-50.54-3.71-100.2-4.7-105.1-.98-6.97-9.59-15.54-19.7-20.04,10.72-8.02,21.85-13.14,32.6-14.65,49.39-6.94,35.23,105.25-8.2,139.79Z"/>
    <path class="cls-10" d="M429.2,563.26c-13.65,1.92-31.09,6.44-35.32,26.89-20.56,7.63-21.05,42.06-17.21,69.37.44,3.1.99,6.3,1.65,9.53-5.19,16.56-12.14,34.56-18.22,39.01-6.49-10.34-15.33-28.95-19.69-60.03-1.75-12.49-2.46-30.16-3.93-40.62-2.04-14.53-40.24-20.71-38.44-7.93,1.02,7.26-.46,19.91,4.28,53.61,3.75,26.73,16.04,80.4,53.8,75.09l.58-.08c10.56-1.48,19.49-22.13,25.81-43.41,7.39,21.8,21.37,40.63,46.18,37.15,38.06-5.35,45.77-57.98,39.52-102.42-6.21-44.16-22.15-58.51-39-56.14ZM441.03,704.39c-18.01,2.53-16.53-45.97-21.76-81.08,9.15-10.77,1.09-40.74,10.38-42.04,31.08-4.37,29.68,120.55,11.38,123.12Z"/>
    <path class="cls-10" d="M612.84,548.41c-.98-6.97-10.76-11.22-20.42-12.53-1-.75-3.69-.96-8.34-.31-2.08,0-3.82.24-5.56.49-1.16.16-1.99.58-3.11,1.03-.83.41-1.66.83-2.16,1.49-19.24,14.85-33.53,94.48-39.38,132.92-1.69-5.69-3.21-12.29-4.27-19.84-1.35-9.59-4.6-41.12-5.45-47.23-2.65-18.88-44.95-9.98-44.21-4.75.74,5.23,3.65,2.75,4.38,7.97.61,4.36,10.43,103.7,52.84,97.74,1.45-.2,2.57-.66,3.4-1.07.29-.04.58-.08.87-.12,1.37-.79,1.83-1.74,1.91-3.23,9-18.15,19.24-105.5,27.49-139.54-.92,22.94-1.59,62.44,2.94,94.68,6.9,49.1,51.62,49.03,50.44,40.61s-6.34-5.03-12.5-48.9c-3.1-22.08,3.1-85.46,1.14-99.4Z"/>
    <path class="cls-10" d="M670.14,507.18c-1.55-11.04-19.4-26.31-33.63-24.31-14.53,2.04-27.1,3.22-25.02,18.03,2.04,14.53,62.33,32.42,58.65,6.27Z"/>
    <path class="cls-10" d="M921.83,506.47c-3.39-24.11-22.15-20.59-38.13-18.34-13.36,1.88-28.58,70.67-30.78,109.79-1.72-8.05-3.32-17.31-4.83-28.06-3.1-22.08.66-37.42-1.01-49.33-1.72-12.2-12.15-21.1-31.61-18.37-9.88,1.39-7.57,45.2-3.41,74.83,1.67,11.89,3.68,22.27,5.93,31.33-5.96,16.18-16.52,32.66-35.37,35.31-15.98,2.25-37.82-24.6-39.54-53.69,6.35.88,14.77,1.78,21.74.8,18.88-2.65,31.16-20.67,26.88-51.18-2.29-16.27-10.56-28.73-19.84-31.58-9.62-3.09-37.75-.92-48.2,11.22-10.15,12.09-24.42,49.64-19.12,87.41.67,4.76,2.02,9.62,3.98,14.4-5.23,17.01-12.46,36.1-18.74,40.7-6.49-10.34-15.33-28.95-19.69-60.03-1.76-12.49-2.46-30.16-3.93-40.62-2.04-14.53-40.24-20.71-38.44-7.93,1.02,7.26-.46,19.91,4.28,53.61,3.76,26.73,16.04,80.39,53.81,75.09q.29-.04.58-.08c11.65-1.64,21.31-26.6,27.68-50.01,12.4,19.73,35.46,35.21,64.17,31.18,22.51-3.16,35.57-22.68,43.18-42.37,19.6,62.24,51.84,46.13,50.91,39.51-.69-4.94-5.83-9.84-12-30.6-3.47-41.58,20.79-113.42,20.79-113.42,0,0-1.43,25.68-.53,32.07.9,6.39,12.46,10.69,27.28,8.61,14.53-2.04,17.36-26.14,13.97-50.25ZM763.88,531.33c14.82-2.08,18.03,62.94-21.07,52.44-.65-25.68,5.96-50.31,21.07-52.44Z"/>
  </g>
  <circle class="cls-10" cx="493.14" cy="294.06" r="132.18"/>
  <circle class="cls-7" cx="493.14" cy="294.06" r="67.12"/>
  <g>
    <g>
      <path class="cls-10" d="M536.02,486.23c-.79,0-1.57-.32-2.14-.89-.73-.74-1.02-1.8-.78-2.81l10.39-43.14c.24-.98.95-1.77,1.89-2.12,63.47-23.12,104.51-86.38,99.79-153.84-.12-1.65,1.13-3.09,2.78-3.2l129.52-9.06c.07,0,.14,0,.21,0,1.39,0,2.61.96,2.92,2.34.33,1.44-.45,2.91-1.82,3.45l-89.54,35.35c-3.78,41.2-20.17,79.53-47.49,110.96-27.73,31.9-64.06,53.64-105.09,62.89-.22.05-.44.07-.66.07Z"/>
      <path class="cls-9" d="M777.69,274.17h0M777.69,274.17l-91.26,36.03c-6.92,84.11-68.07,154.48-150.4,173.03l10.39-43.14c63.48-23.12,106.7-86.11,101.76-156.87l38.44-2.69,91.08-6.37M777.69,268.17c-.06,0-.12,0-.17,0-.1,0-.21,0-.31.02l-91.02,6.36-38.44,2.69c-3.31.23-5.8,3.1-5.57,6.4,4.62,66.13-35.6,128.15-97.83,150.81-1.89.69-3.31,2.28-3.78,4.23l-10.39,43.14c-.49,2.02.1,4.14,1.56,5.62,1.14,1.16,2.69,1.79,4.27,1.79.44,0,.88-.05,1.32-.15,20.87-4.7,40.73-12.69,59.04-23.75,17.87-10.79,33.9-24.28,47.65-40.1,13.74-15.81,24.87-33.56,33.07-52.77,7.91-18.52,12.94-38.03,14.96-58.04l87.7-34.62c.59-.22,1.14-.52,1.62-.9.12-.1.24-.19.35-.3,1.2-1.1,1.96-2.68,1.96-4.43,0-3.22-2.54-5.85-5.72-5.99-.09,0-.18,0-.28,0h0ZM777.69,280.17h0,0Z"/>
    </g>
    <g>
      <path class="cls-10" d="M513.04,581.61c-1.21,0-2.33-.73-2.79-1.9l-35.35-89.54c-41.2-3.78-79.53-20.17-110.96-47.49-31.9-27.73-53.64-64.06-62.89-105.09-.23-1.01.08-2.07.82-2.8.57-.56,1.33-.86,2.11-.86.23,0,.47.03.7.08l43.14,10.39c.98.24,1.77.94,2.12,1.89,21.82,59.91,79.31,100.17,143.05,100.17,3.58,0,7.21-.13,10.79-.38.07,0,.14,0,.21,0,.72,0,1.42.26,1.97.74.6.52.97,1.26,1.02,2.05l9.06,129.52c.1,1.48-.89,2.81-2.33,3.13-.22.05-.44.07-.66.07Z"/>
      <path class="cls-9" d="M303.98,336.94l43.14,10.39c21.92,60.17,79.65,102.14,145.87,102.14,3.64,0,7.31-.13,11-.38l9.06,129.52-36.03-91.26c-84.11-6.92-154.48-68.07-173.03-150.4M303.98,330.94c-1.56,0-3.08.61-4.21,1.73-1.48,1.46-2.1,3.57-1.64,5.59,4.7,20.87,12.69,40.73,23.75,59.04,10.79,17.87,24.28,33.9,40.1,47.65,15.81,13.74,33.56,24.87,52.77,33.07,18.52,7.91,38.03,12.94,58.04,14.96l34.68,87.83c.92,2.33,3.16,3.8,5.58,3.8.44,0,.88-.05,1.33-.15,2.89-.65,4.87-3.32,4.66-6.27l-9.06-129.52c-.11-1.59-.85-3.07-2.05-4.11-1.1-.95-2.49-1.47-3.94-1.47-.14,0-.28,0-.42.01-3.51.25-7.07.37-10.58.37-62.48,0-118.84-39.46-140.23-98.2-.69-1.89-2.28-3.31-4.23-3.78l-43.14-10.39c-.47-.11-.94-.17-1.41-.17h0Z"/>
    </g>
    <g>
      <path class="cls-10" d="M208.6,316.96c-1.39,0-2.61-.96-2.92-2.34-.33-1.44.45-2.91,1.82-3.45l89.54-35.35c3.78-41.2,20.17-79.53,47.49-110.96,27.73-31.9,64.06-53.64,105.09-62.89.22-.05.44-.07.66-.07.79,0,1.57.32,2.14.89.73.74,1.02,1.8.78,2.81l-10.39,43.14c-.24.98-.94,1.77-1.89,2.12-63.47,23.12-104.51,86.38-99.79,153.84.12,1.65-1.13,3.09-2.78,3.2l-129.52,9.06c-.07,0-.14,0-.21,0Z"/>
      <path class="cls-9" d="M450.27,104.9h0M450.27,104.9l-10.39,43.14c-63.48,23.12-106.71,86.11-101.76,156.87l-38.44,2.69-91.08,6.37,91.26-36.03c6.92-84.11,68.07-154.48,150.4-173.03M450.27,98.9c-.09,0-.18,0-.28,0-.4.02-.79.08-1.17.17-20.82,4.71-40.64,12.69-58.92,23.72-17.87,10.79-33.9,24.28-47.65,40.1-13.74,15.81-24.87,33.56-33.07,52.77-7.91,18.52-12.94,38.03-14.96,58.04l-87.83,34.68c-2.75,1.09-4.3,4.02-3.65,6.91.62,2.75,3.07,4.67,5.85,4.67.14,0,.28,0,.42-.01l91.08-6.37,38.44-2.69c1.59-.11,3.07-.85,4.11-2.05,1.04-1.2,1.57-2.77,1.46-4.35-4.62-66.13,35.6-128.15,97.83-150.81,1.89-.69,3.31-2.28,3.78-4.23l10.34-42.93c.14-.51.22-1.05.22-1.61,0-3.28-2.62-5.94-5.88-6-.04,0-.08,0-.12,0h0ZM450.27,110.9h0,0Z"/>
    </g>
    <g>
      <path class="cls-10" d="M682.31,254.19c-.23,0-.47-.03-.7-.08l-43.14-10.39c-.98-.24-1.77-.94-2.12-1.89-21.82-59.91-79.31-100.17-143.05-100.17-3.58,0-7.21.13-10.79.38-.07,0-.14,0-.21,0-1.56,0-2.88-1.21-2.99-2.79l-9.06-129.52c-.1-1.48.89-2.81,2.33-3.14.22-.05.44-.07.66-.07,1.21,0,2.33.73,2.79,1.9l35.35,89.54c41.21,3.78,79.54,20.17,110.96,47.49,31.9,27.73,53.64,64.06,62.89,105.09.23,1.01-.08,2.07-.82,2.8-.57.56-1.33.86-2.11.86Z"/>
      <path class="cls-9" d="M473.25,9.52l36.03,91.26c84.11,6.92,154.48,68.07,173.03,150.4l-43.14-10.39c-21.92-60.17-79.65-102.14-145.87-102.14-3.64,0-7.31.13-11,.38l-2.69-38.44-6.37-91.08M473.25,3.52c-.44,0-.88.05-1.33.15-2.89.65-4.87,3.32-4.66,6.27l6.37,91.08,2.69,38.44c.22,3.16,2.86,5.58,5.98,5.58.14,0,.28,0,.42-.01,3.51-.25,7.07-.37,10.58-.37,62.48,0,118.84,39.46,140.23,98.2.69,1.89,2.28,3.31,4.23,3.78l43.14,10.39c.47.11.94.17,1.41.17,1.56,0,3.08-.61,4.21-1.73,1.48-1.46,2.1-3.57,1.64-5.59-4.7-20.87-12.69-40.73-23.75-59.04-10.79-17.87-24.28-33.9-40.1-47.65-15.81-13.74-33.56-24.87-52.77-33.07-18.52-7.91-38.03-12.94-58.04-14.96L478.83,7.32c-.92-2.33-3.16-3.8-5.58-3.8h0Z"/>
    </g>
  </g>
  <g>
    <polygon class="cls-9" points="400.8 213.79 388.65 210.75 396.1 202.18 400.8 213.79"/>
    <polygon class="cls-9" points="412.87 386.41 409.84 398.56 401.26 391.1 412.87 386.41"/>
    <polygon class="cls-9" points="585.49 374.34 597.64 377.37 590.19 385.95 585.49 374.34"/>
    <polygon class="cls-9" points="573.42 201.72 576.45 189.57 585.03 197.02 573.42 201.72"/>
    <polygon class="cls-9" points="378.81 302.06 359.31 313.76 357.87 293.18 378.81 302.06"/>
    <polygon class="cls-9" points="607.49 286.07 626.99 274.36 628.42 294.95 607.49 286.07"/>
    <polygon class="cls-8" points="485.15 179.72 473.44 160.22 494.03 158.78 485.15 179.72"/>
    <polygon class="cls-2" points="501.14 408.4 512.85 427.9 492.26 429.34 501.14 408.4"/>
    <path class="cls-9" d="M502.23,425.94c-68.64,4.81-130.26-44.3-139.98-113.48-10.16-72.29,40.21-139.13,112.5-149.29,3.11-.44,6.22-.76,9.31-.98,68.64-4.8,130.26,44.3,139.98,113.48,10.16,72.29-40.21,139.13-112.5,149.29-3.11.44-6.22.76-9.31.98M502.65,432.07l-.43-6.13.43,6.13c3.25-.23,6.53-.57,9.75-1.02,36.59-5.14,68.99-24.23,91.22-53.73,22.24-29.51,31.65-65.91,26.51-102.5-4.91-34.9-22.71-66.3-50.12-88.41-27.29-22.01-61.51-32.78-96.37-30.34-3.24.23-6.51.57-9.74,1.02-36.59,5.14-68.99,24.23-91.22,53.73-22.24,29.51-31.65,65.91-26.51,102.5,4.9,34.9,22.71,66.3,50.12,88.41,27.29,22.01,61.51,32.79,96.36,30.35h0Z"/>
  </g>
  <g>
    <path class="cls-7" d="M488.46,227.11c36.98-2.59,69.05,25.29,71.63,62.27,2.59,36.98-25.29,69.05-62.27,71.63-36.98,2.59-69.05-25.29-71.63-62.27-2.59-36.98,25.29-69.05,62.27-71.63M488.25,224.12c-38.57,2.7-67.75,36.27-65.05,74.84,2.7,38.57,36.27,67.75,74.84,65.05,38.57-2.7,67.75-36.27,65.05-74.84-2.7-38.57-36.27-67.75-74.84-65.05h0Z"/>
    <polygon class="cls-7" points="487.41 212.01 495.19 224.97 481.51 225.92 487.41 212.01"/>
    <polygon class="cls-7" points="575.19 288.33 562.24 296.1 561.28 282.43 575.19 288.33"/>
    <polygon class="cls-7" points="498.88 376.11 491.1 363.16 504.78 362.2 498.88 376.11"/>
    <polygon class="cls-7" points="411.09 299.8 424.05 292.02 425.01 305.7 411.09 299.8"/>
  </g>
  <g>
    <polygon class="cls-8" points="426.24 200.36 476.09 306.24 510.2 281.89 426.24 200.36"/>
    <polygon class="cls-2" points="560.05 387.77 476.09 306.24 510.2 281.89 560.05 387.77"/>
  </g>
  <circle class="cls-9" cx="493.15" cy="294.06" r="25.06"/>
  <path class="cls-7" d="M493.15,324.63c-16.86,0-30.57-13.71-30.57-30.57s13.71-30.57,30.57-30.57,30.57,13.71,30.57,30.57-13.71,30.57-30.57,30.57ZM493.15,274.5c-10.78,0-19.56,8.77-19.56,19.56s8.77,19.56,19.56,19.56,19.56-8.77,19.56-19.56-8.77-19.56-19.56-19.56Z"/>
  <circle class="cls-10" cx="493.14" cy="294.06" r="8.09"/>
  <g>
    <path class="cls-9" d="M481.28,207.74l-1.57-22.47,3.19-.22,5.81,11.36-.82-11.71,3.77-.26,1.57,22.47-3.05.21-5.86-12.08.87,12.43-3.91.27Z"/>
    <path class="cls-9" d="M591.54,298.77c-1.65.12-2.97-.09-3.97-.61s-1.75-1.32-2.24-2.39-.79-2.37-.9-3.91l-.59-8.38c-.11-1.54,0-2.86.35-3.98.34-1.12.97-2,1.89-2.64.92-.64,2.21-1.02,3.85-1.13s3,.08,4.02.6,1.76,1.3,2.26,2.35c.49,1.05.79,2.35.9,3.88l.59,8.38c.11,1.54,0,2.87-.35,4s-.97,2.02-1.9,2.68-2.23,1.05-3.89,1.16ZM591.31,295.47c.59-.04,1.02-.21,1.28-.49.26-.29.42-.66.48-1.12.06-.46.07-.95.04-1.47l-.74-10.63c-.04-.52-.12-1-.24-1.43-.12-.44-.33-.78-.63-1.03-.3-.25-.74-.35-1.33-.31-.56.04-.96.2-1.22.49-.26.29-.42.66-.48,1.11-.06.45-.07.94-.04,1.45l.74,10.63c.04.52.11,1,.23,1.45.11.45.32.8.62,1.04.3.25.73.35,1.3.31Z"/>
    <path class="cls-9" d="M501.28,403.4c-1.39.1-2.56-.08-3.52-.52-.96-.44-1.71-1.16-2.26-2.16s-.91-2.28-1.09-3.87l3.89-.94c.1.92.25,1.69.45,2.3.2.61.47,1.05.82,1.34.34.28.76.41,1.24.37.59-.04.98-.25,1.17-.64.19-.38.26-.82.23-1.3-.07-.94-.35-1.72-.85-2.33-.5-.61-1.14-1.21-1.92-1.8l-2.47-1.86c-.88-.64-1.62-1.39-2.21-2.24s-.93-1.92-1.02-3.22c-.13-1.85.31-3.31,1.33-4.37,1.01-1.06,2.46-1.66,4.35-1.8,1.13-.08,2.07.04,2.81.36.75.32,1.34.78,1.78,1.37.44.59.77,1.25.97,1.97.21.72.36,1.44.44,2.16l-3.87.86c-.08-.68-.19-1.28-.31-1.79-.12-.51-.31-.91-.58-1.19-.27-.28-.66-.4-1.15-.37-.54.04-.92.26-1.15.68-.23.42-.33.86-.3,1.35.06.8.28,1.44.68,1.92.4.48.93.98,1.6,1.49l2.41,1.84c1,.75,1.87,1.62,2.62,2.62.75,1,1.18,2.26,1.28,3.8.07,1.05-.1,2.02-.52,2.91-.42.88-1.05,1.6-1.87,2.14-.83.54-1.82.85-2.99.93Z"/>
    <path class="cls-9" d="M390.3,312.55l-4.48-22.27,3.88-.27,2.51,13.63,1.01-13.84,3.08-.22,3.01,13.54.6-13.82,3.83-.27-1.31,22.68-3.88.27-3.19-14.08-1.09,14.38-3.97.28Z"/>
  </g>
</svg>