<?xml version="1.0" encoding="utf-8"?>
<!-- Generator: Adobe Illustrator 27.3.1, SVG Export Plug-In . SVG Version: 6.00 Build 0)  -->
<svg version="1.1" id="Layer_1" xmlns="http://www.w3.org/2000/svg" xmlns:xlink="http://www.w3.org/1999/xlink" x="0px" y="0px"
	 viewBox="0 0 133 42" style="enable-background:new 0 0 133 42;" xml:space="preserve">
<style type="text/css">
	.st0{fill-rule:evenodd;clip-rule:evenodd;fill:#1965A3;}
</style>
<polygon class="st0" points="0,24.5 9,24.5 9,33.5 17,33.5 17,24.5 26,24.5 26,16.5 17,16.5 17,7.5 9,7.5 9,16.5 0,16.6 "/>
<polygon class="st0" points="107,24.5 116,24.5 116,33.5 124,33.5 124,24.5 133,24.5 133,16.5 124,16.5 124,7.5 116,7.5 116,16.5 
	107,16.6 "/>
<path class="st0" d="M69.6,9.2l-7.1,4.1c-0.2-0.3-0.7-0.9-1.5-1.8C58.5,9.2,55.4,8,51.8,8c-3,0-5.5,0.9-7.7,2.7
	c-2.9,2.4-4.3,5.8-4.3,10.1c0,3.2,0.7,6,2.2,8.2c2.4,3.5,5.7,5.2,10,5.2c3.9,0,6.8-1.3,8.9-4c0.4-0.5,1-1.5,1.7-3H51.9v-7.5
	l20.2,0.1c0,5.9-1.3,10.6-3.9,14.3c-3.9,5.3-9.4,7.9-16.5,7.9c-1.6,0-3.2-0.2-4.9-0.5c-5.1-1-9.1-3.7-12-7.9
	c-2.4-3.5-3.6-7.6-3.6-12.5c0-2.1,0.2-3.9,0.6-5.5c0.9-3.6,2.4-6.6,4.6-9.1c0.8-0.9,1.8-1.8,3-2.7C42.8,1.3,47,0,51.9,0
	c4.6,0,8.7,1.1,12.2,3.5c1.4,0.9,2.6,2,3.7,3.1C68.3,7.3,69,8.1,69.6,9.2L69.6,9.2z"/>
<polygon class="st0" points="77.5,1 101,1 101,8.6 86.3,8.6 86.3,16.5 101,16.5 101,24.5 86.3,24.5 86.3,41 77.5,41 "/>
</svg>
